<svg width="1440" height="1024" viewBox="0 0 1440 1024" fill="none" xmlns="http://www.w3.org/2000/svg">
<rect width="1440" height="1024" fill="none" stroke="black"/>
<rect x="230" y="293.017" width="400" height="400" fill="#C4C4C4"/>
<rect x="230.002" y="643.015" width="50" height="50" fill="black"/>
<rect x="230.002" y="543.015" width="50" height="50" fill="black"/>
<rect x="230.002" y="443.015" width="50" height="50" fill="black"/>
<rect x="230.002" y="343.015" width="50" height="50" fill="black"/>
<rect x="430.002" y="643.015" width="50" height="50" fill="black"/>
<rect x="430.002" y="543.015" width="50" height="50" fill="black"/>
<rect x="430.002" y="443.015" width="50" height="50" fill="black"/>
<rect x="430.002" y="343.015" width="50" height="50" fill="black"/>
<rect x="330.002" y="643.015" width="50" height="50" fill="black"/>
<rect x="330.002" y="543.015" width="50" height="50" fill="black"/>
<rect x="330.002" y="443.015" width="50" height="50" fill="black"/>
<rect x="330.002" y="343.015" width="50" height="50" fill="black"/>
<rect x="530.002" y="643.015" width="50" height="50" fill="black"/>
<rect x="530.002" y="543.015" width="50" height="50" fill="black"/>
<rect x="530.002" y="443.015" width="50" height="50" fill="black"/>
<rect x="530.002" y="343.015" width="50" height="50" fill="black"/>
<rect x="280.002" y="593.015" width="50" height="50" fill="black"/>
<rect x="280.002" y="493.015" width="50" height="50" fill="black"/>
<rect x="280.002" y="393.015" width="50" height="50" fill="black"/>
<rect x="280.002" y="293.015" width="50" height="50" fill="black"/>
<rect x="480.002" y="593.015" width="50" height="50" fill="black"/>
<rect x="480.002" y="493.015" width="50" height="50" fill="black"/>
<rect x="480.002" y="393.015" width="50" height="50" fill="black"/>
<rect x="480.002" y="293.015" width="50" height="50" fill="black"/>
<rect x="380.002" y="593.015" width="50" height="50" fill="black"/>
<rect x="380.002" y="493.015" width="50" height="50" fill="black"/>
<rect x="380.002" y="393.015" width="50" height="50" fill="black"/>
<rect x="380.002" y="293.015" width="50" height="50" fill="black"/>
<rect x="580.002" y="593.015" width="50" height="50" fill="black"/>
<rect x="580.002" y="493.015" width="50" height="50" fill="black"/>
<rect x="580.002" y="393.015" width="50" height="50" fill="black"/>
<rect x="580.002" y="293.015" width="50" height="50" fill="black"/>
<circle cx="255.002" cy="368.015" r="22.5" fill="white" stroke="black"/>
<circle cx="455.002" cy="368.015" r="22.5" fill="white" stroke="black"/>
<circle cx="305.002" cy="418.015" r="22.5" fill="white" stroke="black"/>
<circle cx="505.002" cy="418.015" r="22.5" fill="white" stroke="black"/>
<circle cx="355.002" cy="368.015" r="22.5" fill="white" stroke="black"/>
<circle cx="555.002" cy="368.015" r="22.5" fill="white" stroke="black"/>
<circle cx="405.002" cy="418.015" r="22.5" fill="white" stroke="black"/>
<circle cx="605.002" cy="418.015" r="22.5" fill="white" stroke="black"/>
<circle cx="305.002" cy="318.015" r="22.5" fill="white" stroke="black"/>
<circle cx="505.002" cy="318.015" r="22.5" fill="white" stroke="black"/>
<circle cx="405.002" cy="318.015" r="22.5" fill="white" stroke="black"/>
<circle cx="605.002" cy="318.015" r="22.5" fill="white" stroke="black"/>
<circle cx="255.002" cy="668.015" r="23" fill="#979494"/>
<circle cx="455.002" cy="668.015" r="23" fill="#979494"/>
<circle cx="305.002" cy="618.015" r="23" fill="#979494"/>
<circle cx="505.002" cy="618.015" r="23" fill="#979494"/>
<circle cx="255.002" cy="568.015" r="23" fill="#979494"/>
<circle cx="455.002" cy="568.015" r="23" fill="#979494"/>
<circle cx="355.002" cy="568.015" r="23" fill="#979494"/>
<circle cx="555.002" cy="568.015" r="23" fill="#979494"/>
<circle cx="405.002" cy="618.015" r="23" fill="#979494"/>
<circle cx="605.002" cy="618.015" r="23" fill="#979494"/>
<circle cx="355.002" cy="668.015" r="23" fill="#979494"/>
<circle cx="555.002" cy="668.015" r="23" fill="#979494"/>
<rect x="843" y="187" width="500" height="600" rx="10" fill="#C4C4C4"/>
<path d="M1064.75 244.562C1064.19 249.375 1062.41 253.094 1059.41 255.719C1056.43 258.323 1052.46 259.625 1047.5 259.625C1042.12 259.625 1037.81 257.698 1034.56 253.844C1031.33 249.99 1029.72 244.833 1029.72 238.375V234C1029.72 229.771 1030.47 226.052 1031.97 222.844C1033.49 219.635 1035.64 217.177 1038.41 215.469C1041.18 213.74 1044.39 212.875 1048.03 212.875C1052.86 212.875 1056.74 214.229 1059.66 216.938C1062.57 219.625 1064.27 223.354 1064.75 228.125H1058.72C1058.2 224.5 1057.06 221.875 1055.31 220.25C1053.58 218.625 1051.16 217.812 1048.03 217.812C1044.2 217.812 1041.19 219.229 1039 222.062C1036.83 224.896 1035.75 228.927 1035.75 234.156V238.562C1035.75 243.5 1036.78 247.427 1038.84 250.344C1040.91 253.26 1043.79 254.719 1047.5 254.719C1050.83 254.719 1053.39 253.969 1055.16 252.469C1056.95 250.948 1058.14 248.312 1058.72 244.562H1064.75ZM1077.84 229.281C1080.41 226.135 1083.74 224.562 1087.84 224.562C1094.99 224.562 1098.59 228.594 1098.66 236.656V259H1092.88V236.625C1092.85 234.188 1092.29 232.385 1091.19 231.219C1090.1 230.052 1088.41 229.469 1086.09 229.469C1084.22 229.469 1082.57 229.969 1081.16 230.969C1079.74 231.969 1078.64 233.281 1077.84 234.906V259H1072.06V211H1077.84V229.281ZM1128.19 259C1127.85 258.333 1127.58 257.146 1127.38 255.438C1124.69 258.229 1121.48 259.625 1117.75 259.625C1114.42 259.625 1111.68 258.688 1109.53 256.812C1107.41 254.917 1106.34 252.521 1106.34 249.625C1106.34 246.104 1107.68 243.375 1110.34 241.438C1113.03 239.479 1116.8 238.5 1121.66 238.5H1127.28V235.844C1127.28 233.823 1126.68 232.219 1125.47 231.031C1124.26 229.823 1122.48 229.219 1120.12 229.219C1118.06 229.219 1116.33 229.74 1114.94 230.781C1113.54 231.823 1112.84 233.083 1112.84 234.562H1107.03C1107.03 232.875 1107.62 231.25 1108.81 229.688C1110.02 228.104 1111.65 226.854 1113.69 225.938C1115.75 225.021 1118.01 224.562 1120.47 224.562C1124.36 224.562 1127.42 225.542 1129.62 227.5C1131.83 229.438 1132.98 232.115 1133.06 235.531V251.094C1133.06 254.198 1133.46 256.667 1134.25 258.5V259H1128.19ZM1118.59 254.594C1120.41 254.594 1122.12 254.125 1123.75 253.188C1125.38 252.25 1126.55 251.031 1127.28 249.531V242.594H1122.75C1115.67 242.594 1112.12 244.667 1112.12 248.812C1112.12 250.625 1112.73 252.042 1113.94 253.062C1115.15 254.083 1116.7 254.594 1118.59 254.594ZM1149.97 217V225.188H1156.28V229.656H1149.97V250.625C1149.97 251.979 1150.25 253 1150.81 253.688C1151.38 254.354 1152.33 254.688 1153.69 254.688C1154.35 254.688 1155.27 254.562 1156.44 254.312V259C1154.92 259.417 1153.44 259.625 1152 259.625C1149.42 259.625 1147.47 258.844 1146.16 257.281C1144.84 255.719 1144.19 253.5 1144.19 250.625V229.656H1138.03V225.188H1144.19V217H1149.97Z" fill="#EF5DA8"/>
<rect x="868" y="287" width="450" height="500" rx="10" fill="white"/>
<rect x="893.5" y="737.5" width="299" height="49" rx="9.5" fill="white" stroke="#EF5DA8"/>
<path d="M1218.51 762.592C1215.62 761.76 1213.51 760.74 1212.18 759.533C1210.87 758.314 1210.21 756.814 1210.21 755.033C1210.21 753.018 1211.02 751.354 1212.62 750.041C1214.24 748.717 1216.34 748.055 1218.92 748.055C1220.67 748.055 1222.24 748.395 1223.61 749.074C1224.99 749.754 1226.06 750.691 1226.81 751.887C1227.57 753.082 1227.95 754.389 1227.95 755.807H1224.56C1224.56 754.26 1224.07 753.047 1223.08 752.168C1222.1 751.277 1220.71 750.832 1218.92 750.832C1217.25 750.832 1215.95 751.201 1215.01 751.939C1214.09 752.666 1213.62 753.68 1213.62 754.98C1213.62 756.023 1214.06 756.908 1214.94 757.635C1215.83 758.35 1217.34 759.006 1219.46 759.604C1221.59 760.201 1223.26 760.863 1224.45 761.59C1225.66 762.305 1226.55 763.143 1227.12 764.104C1227.71 765.064 1228 766.195 1228 767.496C1228 769.57 1227.2 771.234 1225.58 772.488C1223.96 773.73 1221.8 774.352 1219.09 774.352C1217.33 774.352 1215.69 774.018 1214.17 773.35C1212.65 772.67 1211.47 771.744 1210.64 770.572C1209.82 769.4 1209.41 768.07 1209.41 766.582H1212.8C1212.8 768.129 1213.37 769.354 1214.5 770.256C1215.65 771.146 1217.18 771.592 1219.09 771.592C1220.87 771.592 1222.24 771.229 1223.19 770.502C1224.14 769.775 1224.61 768.785 1224.61 767.531C1224.61 766.277 1224.17 765.311 1223.29 764.631C1222.41 763.939 1220.82 763.26 1218.51 762.592ZM1239.73 774.352C1237.15 774.352 1235.05 773.508 1233.44 771.82C1231.82 770.121 1231.01 767.854 1231.01 765.018V764.42C1231.01 762.533 1231.37 760.852 1232.08 759.375C1232.81 757.887 1233.82 756.727 1235.11 755.895C1236.41 755.051 1237.81 754.629 1239.32 754.629C1241.8 754.629 1243.72 755.443 1245.09 757.072C1246.46 758.701 1247.15 761.033 1247.15 764.068V765.422H1234.26C1234.31 767.297 1234.85 768.814 1235.9 769.975C1236.95 771.123 1238.29 771.697 1239.9 771.697C1241.05 771.697 1242.03 771.463 1242.82 770.994C1243.62 770.525 1244.32 769.904 1244.91 769.131L1246.9 770.678C1245.31 773.127 1242.92 774.352 1239.73 774.352ZM1239.32 757.301C1238.01 757.301 1236.91 757.781 1236.02 758.742C1235.13 759.691 1234.58 761.027 1234.37 762.75H1243.89V762.504C1243.8 760.852 1243.36 759.574 1242.56 758.672C1241.76 757.758 1240.68 757.301 1239.32 757.301ZM1254 754.98L1254.11 757.371C1255.56 755.543 1257.46 754.629 1259.8 754.629C1263.82 754.629 1265.85 756.896 1265.88 761.432V774H1262.63V761.414C1262.62 760.043 1262.3 759.029 1261.68 758.373C1261.07 757.717 1260.12 757.389 1258.82 757.389C1257.76 757.389 1256.84 757.67 1256.04 758.232C1255.24 758.795 1254.62 759.533 1254.18 760.447V774H1250.93V754.98H1254ZM1270 764.332C1270 761.414 1270.69 759.07 1272.07 757.301C1273.46 755.52 1275.27 754.629 1277.5 754.629C1279.73 754.629 1281.49 755.391 1282.79 756.914V747H1286.05V774H1283.06L1282.9 771.961C1281.6 773.555 1279.79 774.352 1277.47 774.352C1275.27 774.352 1273.47 773.449 1272.07 771.645C1270.69 769.84 1270 767.484 1270 764.578V764.332ZM1273.25 764.701C1273.25 766.857 1273.7 768.545 1274.59 769.764C1275.48 770.982 1276.71 771.592 1278.28 771.592C1280.34 771.592 1281.85 770.666 1282.79 768.814V760.078C1281.82 758.285 1280.33 757.389 1278.31 757.389C1276.72 757.389 1275.48 758.004 1274.59 759.234C1273.7 760.465 1273.25 762.287 1273.25 764.701Z" fill="#EF5DA8"/>
<rect x="1218.5" y="414.5" width="49" height="49" fill="white" stroke="#EF5DA8"/>
<circle cx="1243" cy="428" r="10" fill="#EF5DA8"/>
<ellipse cx="1243" cy="442.5" rx="15" ry="6.5" fill="#EF5DA8"/>
<rect x="1228" y="442" width="30" height="22" fill="#EF5DA8"/>
<ellipse cx="1230.5" cy="452" rx="5.5" ry="12" fill="#EF5DA8"/>
<ellipse cx="1255.5" cy="452" rx="5.5" ry="12" fill="#EF5DA8"/>
<rect x="1343.5" y="42.5" width="49" height="49" fill="white" stroke="#EF5DA8"/>
<circle cx="1368" cy="56" r="10" fill="#EF5DA8"/>
<ellipse cx="1368" cy="70.5" rx="15" ry="6.5" fill="#EF5DA8"/>
<rect x="1353" y="70" width="30" height="22" fill="#EF5DA8"/>
<ellipse cx="1355.5" cy="80" rx="5.5" ry="12" fill="#EF5DA8"/>
<ellipse cx="1380.5" cy="80" rx="5.5" ry="12" fill="#EF5DA8"/>
<rect x="276.5" y="212.5" width="49" height="49" fill="white" stroke="#EF5DA8"/>
<circle cx="301" cy="226" r="10" fill="#EF5DA8"/>
<ellipse cx="301" cy="240.5" rx="15" ry="6.5" fill="#EF5DA8"/>
<rect x="286" y="240" width="30" height="22" fill="#EF5DA8"/>
<ellipse cx="288.5" cy="250" rx="5.5" ry="12" fill="#EF5DA8"/>
<ellipse cx="313.5" cy="250" rx="5.5" ry="12" fill="#EF5DA8"/>
<rect x="474.5" y="212.5" width="49" height="49" fill="white" stroke="#5D5FEF"/>
<circle cx="499" cy="226" r="9.5" fill="#5D5FEF" stroke="#5D5FEF"/>
<path d="M513.5 240.5C513.5 241.23 513.161 241.967 512.463 242.681C511.764 243.397 510.728 244.065 509.408 244.637C506.77 245.781 503.09 246.5 499 246.5C494.91 246.5 491.23 245.781 488.592 244.637C487.272 244.065 486.236 243.397 485.537 242.681C484.839 241.967 484.5 241.23 484.5 240.5C484.5 239.77 484.839 239.033 485.537 238.319C486.236 237.603 487.272 236.935 488.592 236.363C491.23 235.219 494.91 234.5 499 234.5C503.09 234.5 506.77 235.219 509.408 236.363C510.728 236.935 511.764 237.603 512.463 238.319C513.161 239.033 513.5 239.77 513.5 240.5Z" fill="#5D5FEF" stroke="#5D5FEF"/>
<rect x="484.5" y="240.5" width="29" height="21" fill="#5D5FEF" stroke="#5D5FEF"/>
<path d="M491.5 250C491.5 253.259 490.894 256.184 489.935 258.277C488.955 260.413 487.704 261.5 486.5 261.5C485.296 261.5 484.045 260.413 483.065 258.277C482.106 256.184 481.5 253.259 481.5 250C481.5 246.741 482.106 243.816 483.065 241.723C484.045 239.587 485.296 238.5 486.5 238.5C487.704 238.5 488.955 239.587 489.935 241.723C490.894 243.816 491.5 246.741 491.5 250Z" fill="#5D5FEF" stroke="#5D5FEF"/>
<path d="M516.5 250C516.5 253.259 515.894 256.184 514.935 258.277C513.955 260.413 512.704 261.5 511.5 261.5C510.296 261.5 509.045 260.413 508.065 258.277C507.106 256.184 506.5 253.259 506.5 250C506.5 246.741 507.106 243.816 508.065 241.723C509.045 239.587 510.296 238.5 511.5 238.5C512.704 238.5 513.955 239.587 514.935 241.723C515.894 243.816 516.5 246.741 516.5 250Z" fill="#5D5FEF" stroke="#5D5FEF"/>
<path d="M1289.41 53.2031V61.9043C1289.4 63.1113 1289.02 64.0986 1288.27 64.8662C1287.52 65.6338 1286.5 66.0645 1285.21 66.1582L1284.76 66.1758C1283.36 66.1758 1282.24 65.7979 1281.41 65.042C1280.58 64.2861 1280.16 63.2461 1280.15 61.9219V53.2031H1281.82V61.8691C1281.82 62.7949 1282.07 63.5156 1282.58 64.0312C1283.09 64.541 1283.82 64.7959 1284.76 64.7959C1285.71 64.7959 1286.44 64.541 1286.95 64.0312C1287.46 63.5215 1287.71 62.8037 1287.71 61.8779V53.2031H1289.41ZM1297.35 63.4775C1297.35 63.0381 1297.19 62.6982 1296.85 62.458C1296.53 62.2119 1295.95 62.001 1295.12 61.8252C1294.3 61.6494 1293.65 61.4385 1293.16 61.1924C1292.68 60.9463 1292.32 60.6533 1292.09 60.3135C1291.86 59.9736 1291.75 59.5693 1291.75 59.1006C1291.75 58.3213 1292.08 57.6621 1292.73 57.123C1293.39 56.584 1294.24 56.3145 1295.26 56.3145C1296.34 56.3145 1297.21 56.5928 1297.88 57.1494C1298.56 57.7061 1298.89 58.418 1298.89 59.2852H1297.26C1297.26 58.8398 1297.07 58.4561 1296.69 58.1338C1296.31 57.8115 1295.84 57.6504 1295.26 57.6504C1294.67 57.6504 1294.21 57.7793 1293.87 58.0371C1293.54 58.2949 1293.37 58.6318 1293.37 59.0479C1293.37 59.4404 1293.53 59.7363 1293.84 59.9355C1294.15 60.1348 1294.71 60.3252 1295.52 60.5068C1296.33 60.6885 1296.99 60.9053 1297.5 61.1572C1298 61.4092 1298.37 61.7139 1298.61 62.0713C1298.86 62.4229 1298.98 62.8535 1298.98 63.3633C1298.98 64.2129 1298.64 64.8955 1297.96 65.4111C1297.28 65.9209 1296.4 66.1758 1295.32 66.1758C1294.55 66.1758 1293.88 66.041 1293.29 65.7715C1292.71 65.502 1292.25 65.127 1291.91 64.6465C1291.59 64.1602 1291.42 63.6357 1291.42 63.0732H1293.05C1293.08 63.6182 1293.29 64.0518 1293.7 64.374C1294.11 64.6904 1294.65 64.8486 1295.32 64.8486C1295.93 64.8486 1296.42 64.7256 1296.79 64.4795C1297.17 64.2275 1297.35 63.8936 1297.35 63.4775ZM1305.04 66.1758C1303.76 66.1758 1302.71 65.7539 1301.9 64.9102C1301.09 64.0605 1300.69 62.9268 1300.69 61.5088V61.21C1300.69 60.2666 1300.86 59.4258 1301.22 58.6875C1301.58 57.9434 1302.09 57.3633 1302.73 56.9473C1303.38 56.5254 1304.09 56.3145 1304.84 56.3145C1306.08 56.3145 1307.04 56.7217 1307.73 57.5361C1308.41 58.3506 1308.75 59.5166 1308.75 61.0342V61.7109H1302.31C1302.33 62.6484 1302.61 63.4072 1303.13 63.9873C1303.66 64.5615 1304.32 64.8486 1305.13 64.8486C1305.71 64.8486 1306.19 64.7314 1306.59 64.4971C1306.99 64.2627 1307.34 63.9521 1307.64 63.5654L1308.63 64.3389C1307.83 65.5635 1306.64 66.1758 1305.04 66.1758ZM1304.84 57.6504C1304.19 57.6504 1303.64 57.8906 1303.19 58.3711C1302.75 58.8457 1302.47 59.5137 1302.36 60.375H1307.13V60.252C1307.08 59.4258 1306.86 58.7871 1306.46 58.3359C1306.06 57.8789 1305.52 57.6504 1304.84 57.6504ZM1315.24 57.9492C1314.99 57.9082 1314.73 57.8877 1314.44 57.8877C1313.37 57.8877 1312.65 58.3418 1312.27 59.25V66H1310.64V56.4902H1312.23L1312.25 57.5889C1312.79 56.7393 1313.54 56.3145 1314.52 56.3145C1314.84 56.3145 1315.08 56.3555 1315.24 56.4375V57.9492ZM1326.38 66H1324.75V55.1631L1321.47 56.3672V54.8906L1326.13 53.1416H1326.38V66ZM1279.61 85.6201H1285.67V87H1277.91V74.2031H1279.61V85.6201ZM1286.91 82.1572C1286.91 81.2256 1287.09 80.3877 1287.46 79.6436C1287.83 78.8994 1288.34 78.3252 1288.99 77.9209C1289.64 77.5166 1290.39 77.3145 1291.23 77.3145C1292.52 77.3145 1293.57 77.7627 1294.37 78.6592C1295.17 79.5557 1295.57 80.748 1295.57 82.2363V82.3506C1295.57 83.2764 1295.39 84.1084 1295.03 84.8467C1294.68 85.5791 1294.18 86.1504 1293.51 86.5605C1292.86 86.9707 1292.1 87.1758 1291.25 87.1758C1289.96 87.1758 1288.91 86.7275 1288.11 85.8311C1287.31 84.9346 1286.91 83.748 1286.91 82.2715V82.1572ZM1288.55 82.3506C1288.55 83.4053 1288.79 84.252 1289.28 84.8906C1289.77 85.5293 1290.43 85.8486 1291.25 85.8486C1292.07 85.8486 1292.73 85.5264 1293.21 84.8818C1293.7 84.2314 1293.94 83.3232 1293.94 82.1572C1293.94 81.1143 1293.7 80.2705 1293.2 79.626C1292.71 78.9756 1292.05 78.6504 1291.23 78.6504C1290.43 78.6504 1289.78 78.9697 1289.29 79.6084C1288.79 80.2471 1288.55 81.1611 1288.55 82.3506ZM1297.22 82.166C1297.22 80.6836 1297.57 79.5059 1298.25 78.6328C1298.94 77.7539 1299.84 77.3145 1300.98 77.3145C1302.14 77.3145 1303.04 77.7246 1303.69 78.5449L1303.77 77.4902H1305.26V86.7715C1305.26 88.002 1304.89 88.9717 1304.16 89.6807C1303.43 90.3896 1302.45 90.7441 1301.22 90.7441C1300.54 90.7441 1299.87 90.5977 1299.21 90.3047C1298.55 90.0117 1298.05 89.6104 1297.71 89.1006L1298.55 88.125C1299.25 88.9863 1300.1 89.417 1301.11 89.417C1301.9 89.417 1302.51 89.1943 1302.95 88.749C1303.4 88.3037 1303.62 87.6768 1303.62 86.8682V86.0508C1302.97 86.8008 1302.08 87.1758 1300.96 87.1758C1299.84 87.1758 1298.94 86.7275 1298.25 85.8311C1297.57 84.9346 1297.22 83.7129 1297.22 82.166ZM1298.86 82.3506C1298.86 83.4229 1299.08 84.2666 1299.52 84.8818C1299.96 85.4912 1300.57 85.7959 1301.36 85.7959C1302.39 85.7959 1303.14 85.3301 1303.62 84.3984V80.0566C1303.12 79.1484 1302.38 78.6943 1301.38 78.6943C1300.59 78.6943 1299.97 79.002 1299.53 79.6172C1299.08 80.2324 1298.86 81.1436 1298.86 82.3506ZM1307.29 82.1572C1307.29 81.2256 1307.47 80.3877 1307.83 79.6436C1308.2 78.8994 1308.71 78.3252 1309.36 77.9209C1310.02 77.5166 1310.76 77.3145 1311.6 77.3145C1312.9 77.3145 1313.94 77.7627 1314.74 78.6592C1315.54 79.5557 1315.94 80.748 1315.94 82.2363V82.3506C1315.94 83.2764 1315.76 84.1084 1315.41 84.8467C1315.06 85.5791 1314.55 86.1504 1313.89 86.5605C1313.23 86.9707 1312.47 87.1758 1311.62 87.1758C1310.33 87.1758 1309.28 86.7275 1308.48 85.8311C1307.68 84.9346 1307.29 83.748 1307.29 82.2715V82.1572ZM1308.92 82.3506C1308.92 83.4053 1309.16 84.252 1309.65 84.8906C1310.14 85.5293 1310.8 85.8486 1311.62 85.8486C1312.45 85.8486 1313.1 85.5264 1313.59 84.8818C1314.07 84.2314 1314.32 83.3232 1314.32 82.1572C1314.32 81.1143 1314.07 80.2705 1313.57 79.626C1313.08 78.9756 1312.42 78.6504 1311.6 78.6504C1310.8 78.6504 1310.15 78.9697 1309.66 79.6084C1309.17 80.2471 1308.92 81.1611 1308.92 82.3506ZM1323.85 86.0596C1323.22 86.8037 1322.29 87.1758 1321.07 87.1758C1320.05 87.1758 1319.28 86.8828 1318.75 86.2969C1318.22 85.7051 1317.95 84.832 1317.95 83.6777V77.4902H1319.57V83.6338C1319.57 85.0752 1320.16 85.7959 1321.33 85.7959C1322.57 85.7959 1323.4 85.333 1323.81 84.4072V77.4902H1325.44V87H1323.89L1323.85 86.0596ZM1330.12 75.1875V77.4902H1331.9V78.7471H1330.12V84.6445C1330.12 85.0254 1330.2 85.3125 1330.36 85.5059C1330.52 85.6934 1330.79 85.7871 1331.17 85.7871C1331.35 85.7871 1331.61 85.752 1331.94 85.6816V87C1331.51 87.1172 1331.1 87.1758 1330.69 87.1758C1329.96 87.1758 1329.42 86.9561 1329.05 86.5166C1328.68 86.0771 1328.49 85.4531 1328.49 84.6445V78.7471H1326.76V77.4902H1328.49V75.1875H1330.12Z" fill="#EF5DA8"/>
<path d="M361.775 748.256L368.455 735.406H372.287L363.463 751.455V761H360.088V751.455L351.264 735.406H355.131L361.775 748.256ZM373.061 751.314C373.061 749.451 373.424 747.775 374.15 746.287C374.889 744.799 375.908 743.65 377.209 742.842C378.521 742.033 380.016 741.629 381.691 741.629C384.281 741.629 386.373 742.525 387.967 744.318C389.572 746.111 390.375 748.496 390.375 751.473V751.701C390.375 753.553 390.018 755.217 389.303 756.693C388.6 758.158 387.586 759.301 386.262 760.121C384.949 760.941 383.438 761.352 381.727 761.352C379.148 761.352 377.057 760.455 375.451 758.662C373.857 756.869 373.061 754.496 373.061 751.543V751.314ZM376.33 751.701C376.33 753.811 376.816 755.504 377.789 756.781C378.773 758.059 380.086 758.697 381.727 758.697C383.379 758.697 384.691 758.053 385.664 756.764C386.637 755.463 387.123 753.646 387.123 751.314C387.123 749.229 386.625 747.541 385.629 746.252C384.645 744.951 383.332 744.301 381.691 744.301C380.086 744.301 378.791 744.939 377.807 746.217C376.822 747.494 376.33 749.322 376.33 751.701ZM406.195 759.119C404.93 760.607 403.072 761.352 400.623 761.352C398.596 761.352 397.049 760.766 395.982 759.594C394.928 758.41 394.395 756.664 394.383 754.355V741.98H397.635V754.268C397.635 757.15 398.807 758.592 401.15 758.592C403.635 758.592 405.287 757.666 406.107 755.814V741.98H409.359V761H406.266L406.195 759.119ZM423.51 744.898C423.018 744.816 422.484 744.775 421.91 744.775C419.777 744.775 418.33 745.684 417.568 747.5V761H414.316V741.98H417.48L417.533 744.178C418.6 742.479 420.111 741.629 422.068 741.629C422.701 741.629 423.182 741.711 423.51 741.875V744.898ZM452.936 738.184H444.709V761H441.352V738.184H433.143V735.406H452.936V738.184ZM466.277 759.119C465.012 760.607 463.154 761.352 460.705 761.352C458.678 761.352 457.131 760.766 456.064 759.594C455.01 758.41 454.477 756.664 454.465 754.355V741.98H457.717V754.268C457.717 757.15 458.889 758.592 461.232 758.592C463.717 758.592 465.369 757.666 466.189 755.814V741.98H469.441V761H466.348L466.277 759.119ZM483.592 744.898C483.1 744.816 482.566 744.775 481.992 744.775C479.859 744.775 478.412 745.684 477.65 747.5V761H474.398V741.98H477.562L477.615 744.178C478.682 742.479 480.193 741.629 482.15 741.629C482.783 741.629 483.264 741.711 483.592 741.875V744.898ZM489.674 741.98L489.779 744.371C491.232 742.543 493.131 741.629 495.475 741.629C499.494 741.629 501.521 743.896 501.557 748.432V761H498.305V748.414C498.293 747.043 497.977 746.029 497.355 745.373C496.746 744.717 495.791 744.389 494.49 744.389C493.436 744.389 492.51 744.67 491.713 745.232C490.916 745.795 490.295 746.533 489.85 747.447V761H486.598V741.98H489.674Z" fill="#EF5DA8"/>
<path d="M642.799 987.506C642.799 989.299 642.289 990.67 641.27 991.619C640.262 992.557 638.832 993.025 636.98 993.025C635.141 993.025 633.664 992.41 632.551 991.18C631.449 989.938 630.898 988.25 630.898 986.117V984.184C630.898 982.121 631.455 980.475 632.568 979.244C633.693 978.002 635.164 977.381 636.98 977.381C638.855 977.381 640.297 977.861 641.305 978.822C642.312 979.783 642.816 981.137 642.816 982.883H640.25C640.25 981.723 639.969 980.896 639.406 980.404C638.855 979.9 638.047 979.648 636.98 979.648C635.879 979.648 635.012 980.053 634.379 980.861C633.746 981.67 633.43 982.795 633.43 984.236V986.223C633.43 987.629 633.746 988.736 634.379 989.545C635.012 990.354 635.879 990.758 636.98 990.758C638.059 990.758 638.867 990.512 639.406 990.02C639.957 989.527 640.232 988.689 640.232 987.506H642.799ZM626.75 985.186C626.75 987.201 627.219 989.07 628.156 990.793C629.094 992.504 630.365 993.846 631.971 994.818C633.588 995.791 635.334 996.277 637.209 996.277C639.084 996.277 640.824 995.791 642.43 994.818C644.035 993.846 645.307 992.504 646.244 990.793C647.182 989.07 647.65 987.201 647.65 985.186C647.65 983.193 647.188 981.348 646.262 979.648C645.336 977.949 644.064 976.613 642.447 975.641C640.842 974.656 639.096 974.164 637.209 974.164C635.334 974.164 633.588 974.65 631.971 975.623C630.354 976.584 629.076 977.92 628.139 979.631C627.213 981.342 626.75 983.193 626.75 985.186ZM624.729 985.186C624.729 982.818 625.273 980.621 626.363 978.594C627.465 976.566 628.982 974.973 630.916 973.812C632.861 972.641 634.959 972.055 637.209 972.055C639.459 972.055 641.551 972.641 643.484 973.812C645.418 974.973 646.93 976.566 648.02 978.594C649.121 980.621 649.672 982.818 649.672 985.186C649.672 987.494 649.145 989.656 648.09 991.672C647.035 993.688 645.535 995.311 643.59 996.541C641.656 997.76 639.529 998.369 637.209 998.369C634.9 998.369 632.773 997.766 630.828 996.559C628.895 995.34 627.395 993.723 626.328 991.707C625.262 989.691 624.729 987.518 624.729 985.186ZM680.311 975.184H672.084V998H668.727V975.184H660.518V972.406H680.311V975.184ZM689.732 998.352C687.154 998.352 685.057 997.508 683.439 995.82C681.822 994.121 681.014 991.854 681.014 989.018V988.42C681.014 986.533 681.371 984.852 682.086 983.375C682.812 981.887 683.82 980.727 685.109 979.895C686.41 979.051 687.816 978.629 689.328 978.629C691.801 978.629 693.723 979.443 695.094 981.072C696.465 982.701 697.15 985.033 697.15 988.068V989.422H684.266C684.312 991.297 684.857 992.814 685.9 993.975C686.955 995.123 688.291 995.697 689.908 995.697C691.057 995.697 692.029 995.463 692.826 994.994C693.623 994.525 694.32 993.904 694.918 993.131L696.904 994.678C695.311 997.127 692.92 998.352 689.732 998.352ZM689.328 981.301C688.016 981.301 686.914 981.781 686.023 982.742C685.133 983.691 684.582 985.027 684.371 986.75H693.898V986.504C693.805 984.852 693.359 983.574 692.562 982.672C691.766 981.758 690.688 981.301 689.328 981.301ZM712.672 998C712.484 997.625 712.332 996.957 712.215 995.996C710.703 997.566 708.898 998.352 706.801 998.352C704.926 998.352 703.385 997.824 702.178 996.77C700.982 995.703 700.385 994.355 700.385 992.727C700.385 990.746 701.135 989.211 702.635 988.121C704.146 987.02 706.268 986.469 708.998 986.469H712.162V984.975C712.162 983.838 711.822 982.936 711.143 982.268C710.463 981.588 709.461 981.248 708.137 981.248C706.977 981.248 706.004 981.541 705.219 982.127C704.434 982.713 704.041 983.422 704.041 984.254H700.771C700.771 983.305 701.105 982.391 701.773 981.512C702.453 980.621 703.367 979.918 704.516 979.402C705.676 978.887 706.947 978.629 708.33 978.629C710.521 978.629 712.238 979.18 713.48 980.281C714.723 981.371 715.367 982.877 715.414 984.799V993.553C715.414 995.299 715.637 996.688 716.082 997.719V998H712.672ZM707.275 995.521C708.295 995.521 709.262 995.258 710.176 994.73C711.09 994.203 711.752 993.518 712.162 992.674V988.771H709.613C705.629 988.771 703.637 989.938 703.637 992.27C703.637 993.289 703.977 994.086 704.656 994.66C705.336 995.234 706.209 995.521 707.275 995.521ZM723.57 978.98L723.658 981.09C725.053 979.449 726.934 978.629 729.301 978.629C731.961 978.629 733.771 979.648 734.732 981.688C735.365 980.773 736.186 980.035 737.193 979.473C738.213 978.91 739.414 978.629 740.797 978.629C744.969 978.629 747.09 980.838 747.16 985.256V998H743.908V985.449C743.908 984.09 743.598 983.076 742.977 982.408C742.355 981.729 741.312 981.389 739.848 981.389C738.641 981.389 737.639 981.752 736.842 982.479C736.045 983.193 735.582 984.16 735.453 985.379V998H732.184V985.537C732.184 982.771 730.83 981.389 728.123 981.389C725.99 981.389 724.531 982.297 723.746 984.113V998H720.494V978.98H723.57ZM764.914 995.24H777.043V998H761.521V972.406H764.914V995.24ZM791.352 996.119C790.086 997.607 788.229 998.352 785.779 998.352C783.752 998.352 782.205 997.766 781.139 996.594C780.084 995.41 779.551 993.664 779.539 991.355V978.98H782.791V991.268C782.791 994.15 783.963 995.592 786.307 995.592C788.791 995.592 790.443 994.666 791.264 992.814V978.98H794.516V998H791.422L791.352 996.119ZM805.854 985.924L810.072 978.98H813.869L807.646 988.385L814.062 998H810.301L805.906 990.881L801.512 998H797.732L804.148 988.385L797.926 978.98H801.688L805.854 985.924Z" fill="#EF5DA8"/>
<path d="M542.909 231.203V239.904C542.903 241.111 542.522 242.099 541.767 242.866C541.017 243.634 539.997 244.064 538.708 244.158L538.26 244.176C536.859 244.176 535.743 243.798 534.911 243.042C534.079 242.286 533.657 241.246 533.646 239.922V231.203H535.315V239.869C535.315 240.795 535.57 241.516 536.08 242.031C536.59 242.541 537.316 242.796 538.26 242.796C539.215 242.796 539.944 242.541 540.448 242.031C540.958 241.521 541.213 240.804 541.213 239.878V231.203H542.909ZM550.854 241.478C550.854 241.038 550.688 240.698 550.354 240.458C550.025 240.212 549.448 240.001 548.622 239.825C547.802 239.649 547.148 239.438 546.662 239.192C546.182 238.946 545.824 238.653 545.59 238.313C545.361 237.974 545.247 237.569 545.247 237.101C545.247 236.321 545.575 235.662 546.231 235.123C546.894 234.584 547.737 234.314 548.763 234.314C549.841 234.314 550.714 234.593 551.382 235.149C552.056 235.706 552.393 236.418 552.393 237.285H550.758C550.758 236.84 550.567 236.456 550.187 236.134C549.812 235.812 549.337 235.65 548.763 235.65C548.171 235.65 547.708 235.779 547.374 236.037C547.04 236.295 546.873 236.632 546.873 237.048C546.873 237.44 547.028 237.736 547.339 237.936C547.649 238.135 548.209 238.325 549.018 238.507C549.832 238.688 550.491 238.905 550.995 239.157C551.499 239.409 551.871 239.714 552.111 240.071C552.357 240.423 552.48 240.854 552.48 241.363C552.48 242.213 552.141 242.896 551.461 243.411C550.781 243.921 549.899 244.176 548.815 244.176C548.054 244.176 547.38 244.041 546.794 243.771C546.208 243.502 545.748 243.127 545.414 242.646C545.086 242.16 544.922 241.636 544.922 241.073H546.548C546.577 241.618 546.794 242.052 547.198 242.374C547.608 242.69 548.147 242.849 548.815 242.849C549.431 242.849 549.923 242.726 550.292 242.479C550.667 242.228 550.854 241.894 550.854 241.478ZM558.545 244.176C557.256 244.176 556.207 243.754 555.398 242.91C554.59 242.061 554.186 240.927 554.186 239.509V239.21C554.186 238.267 554.364 237.426 554.722 236.688C555.085 235.943 555.589 235.363 556.233 234.947C556.884 234.525 557.587 234.314 558.343 234.314C559.579 234.314 560.54 234.722 561.226 235.536C561.911 236.351 562.254 237.517 562.254 239.034V239.711H555.812C555.835 240.648 556.107 241.407 556.629 241.987C557.156 242.562 557.824 242.849 558.633 242.849C559.207 242.849 559.693 242.731 560.092 242.497C560.49 242.263 560.839 241.952 561.138 241.565L562.131 242.339C561.334 243.563 560.139 244.176 558.545 244.176ZM558.343 235.65C557.687 235.65 557.136 235.891 556.69 236.371C556.245 236.846 555.97 237.514 555.864 238.375H560.628V238.252C560.581 237.426 560.358 236.787 559.96 236.336C559.562 235.879 559.022 235.65 558.343 235.65ZM568.74 235.949C568.494 235.908 568.228 235.888 567.94 235.888C566.874 235.888 566.15 236.342 565.77 237.25V244H564.144V234.49H565.726L565.752 235.589C566.285 234.739 567.041 234.314 568.02 234.314C568.336 234.314 568.576 234.355 568.74 234.438V235.949ZM582.926 244H574.541V242.831L578.971 237.909C579.627 237.165 580.078 236.562 580.324 236.099C580.576 235.63 580.702 235.146 580.702 234.648C580.702 233.98 580.5 233.433 580.096 233.005C579.691 232.577 579.152 232.363 578.479 232.363C577.67 232.363 577.04 232.595 576.589 233.058C576.144 233.515 575.921 234.153 575.921 234.974H574.295C574.295 233.796 574.673 232.844 575.429 232.117C576.19 231.391 577.207 231.027 578.479 231.027C579.668 231.027 580.608 231.341 581.3 231.968C581.991 232.589 582.337 233.418 582.337 234.455C582.337 235.715 581.534 237.215 579.929 238.955L576.501 242.673H582.926V244Z" fill="#5D5FEF"/>
<rect x="918.5" y="337.5" width="49" height="49" fill="white" stroke="#5D5FEF"/>
<circle cx="943" cy="351" r="9.5" fill="#5D5FEF" stroke="#5D5FEF"/>
<path d="M957.5 365.5C957.5 366.23 957.161 366.967 956.463 367.681C955.764 368.397 954.728 369.065 953.408 369.637C950.77 370.781 947.09 371.5 943 371.5C938.91 371.5 935.23 370.781 932.592 369.637C931.272 369.065 930.236 368.397 929.537 367.681C928.839 366.967 928.5 366.23 928.5 365.5C928.5 364.77 928.839 364.033 929.537 363.319C930.236 362.603 931.272 361.935 932.592 361.363C935.23 360.219 938.91 359.5 943 359.5C947.09 359.5 950.77 360.219 953.408 361.363C954.728 361.935 955.764 362.603 956.463 363.319C957.161 364.033 957.5 364.77 957.5 365.5Z" fill="#5D5FEF" stroke="#5D5FEF"/>
<rect x="928.5" y="365.5" width="29" height="21" fill="#5D5FEF" stroke="#5D5FEF"/>
<path d="M935.5 375C935.5 378.259 934.894 381.184 933.935 383.277C932.955 385.413 931.704 386.5 930.5 386.5C929.296 386.5 928.045 385.413 927.065 383.277C926.106 381.184 925.5 378.259 925.5 375C925.5 371.741 926.106 368.816 927.065 366.723C928.045 364.587 929.296 363.5 930.5 363.5C931.704 363.5 932.955 364.587 933.935 366.723C934.894 368.816 935.5 371.741 935.5 375Z" fill="#5D5FEF" stroke="#5D5FEF"/>
<path d="M960.5 375C960.5 378.259 959.894 381.184 958.935 383.277C957.955 385.413 956.704 386.5 955.5 386.5C954.296 386.5 953.045 385.413 952.065 383.277C951.106 381.184 950.5 378.259 950.5 375C950.5 371.741 951.106 368.816 952.065 366.723C953.045 364.587 954.296 363.5 955.5 363.5C956.704 363.5 957.955 364.587 958.935 366.723C959.894 368.816 960.5 371.741 960.5 375Z" fill="#5D5FEF" stroke="#5D5FEF"/>
<path d="M986.065 369C989.895 371.234 990.042 375.064 985.308 376.727C985.181 376.771 982.308 377.219 983.156 376.212C983.939 375.283 985.6 374.637 986.52 374.273C992.025 372.089 997.976 370.714 1003.82 369.848C1007.45 369.312 1013.83 368.199 1016.43 371.97C1018.68 375.239 1015.08 378.882 1011.91 379.272C1009.92 379.519 1004.31 377.682 1007.85 374.97C1010.91 372.63 1015.57 372.047 1019.09 371.757C1028.9 370.952 1039.47 371.866 1048.79 375.182C1049.42 375.405 1053.85 376.973 1053.58 379.182C1053.44 380.3 1051.78 379.883 1051.4 379.545C1050.92 379.123 1049.84 377.128 1050.37 376.394C1052.57 373.334 1063.09 377.06 1064.91 377.485C1066.14 377.771 1076.05 381.563 1077.76 379.363C1078.42 378.515 1079.31 377.611 1080.24 377.06C1081.6 376.262 1082.96 376.109 1084.49 375.848C1088.17 375.22 1090.95 373.746 1094.34 372.394C1098.07 370.901 1103.42 371.727 1107.24 371.727C1111.44 371.727 1116.24 372.183 1120.24 371.182" stroke="#5D5FEF" stroke-width="3" stroke-linecap="round"/>
<path d="M1052 461.561C1056.39 456.744 1063.62 455.394 1069.7 453.925C1080.5 451.312 1091.59 449.648 1102.73 449.683C1110.91 449.709 1107.06 451.379 1102.42 452.986C1101.51 453.302 1101.82 452.852 1101.91 453.137C1103.46 458.099 1090.43 460.923 1087.82 461.44C1085.58 461.881 1078.21 462.811 1077.51 458.773C1077.26 457.266 1079.91 455.86 1080.54 455.561C1089.32 451.419 1099.76 449.849 1109.27 448.774C1113.33 448.315 1122.65 447.289 1127.51 448.713C1131.29 449.818 1128.22 451.862 1126.82 452.774C1121.59 456.168 1114.73 457.437 1108.63 458.137C1098.84 459.263 1127.59 452.662 1137.21 450.471C1147.51 448.124 1159.33 445.387 1170.03 444.289C1173.35 443.948 1177.99 443.41 1180.78 446.047C1185.53 450.533 1193.33 450.446 1199.81 451.743" stroke="#EF5DA8" stroke-width="3" stroke-linecap="round"/>
<line x1="911" y1="779.066" x2="911" y2="744.934" stroke="#EF5DA8"/>
<path d="M402.941 92V40.8125H417.391C421.844 40.8125 425.781 41.7969 429.203 43.7656C432.625 45.7344 435.262 48.5352 437.113 52.168C438.988 55.8008 439.938 59.9727 439.961 64.6836V67.9531C439.961 72.7812 439.023 77.0117 437.148 80.6445C435.297 84.2773 432.637 87.0664 429.168 89.0117C425.723 90.957 421.703 91.9531 417.109 92H402.941ZM409.691 46.3672V86.4805H416.793C421.996 86.4805 426.039 84.8633 428.922 81.6289C431.828 78.3945 433.281 73.7891 433.281 67.8125V64.8242C433.281 59.0117 431.91 54.5 429.168 51.2891C426.449 48.0547 422.582 46.4141 417.566 46.3672H409.691ZM467.559 59.7969C466.574 59.6328 465.508 59.5508 464.359 59.5508C460.094 59.5508 457.199 61.3672 455.676 65V92H449.172V53.9609H455.5L455.605 58.3555C457.738 54.957 460.762 53.2578 464.676 53.2578C465.941 53.2578 466.902 53.4219 467.559 53.75V59.7969ZM495.648 92C495.273 91.25 494.969 89.9141 494.734 87.9922C491.711 91.1328 488.102 92.7031 483.906 92.7031C480.156 92.7031 477.074 91.6484 474.66 89.5391C472.27 87.4062 471.074 84.7109 471.074 81.4531C471.074 77.4922 472.574 74.4219 475.574 72.2422C478.598 70.0391 482.84 68.9375 488.301 68.9375H494.629V65.9492C494.629 63.6758 493.949 61.8711 492.59 60.5352C491.23 59.1758 489.227 58.4961 486.578 58.4961C484.258 58.4961 482.312 59.082 480.742 60.2539C479.172 61.4258 478.387 62.8438 478.387 64.5078H471.848C471.848 62.6094 472.516 60.7812 473.852 59.0234C475.211 57.2422 477.039 55.8359 479.336 54.8047C481.656 53.7734 484.199 53.2578 486.965 53.2578C491.348 53.2578 494.781 54.3594 497.266 56.5625C499.75 58.7422 501.039 61.7539 501.133 65.5977V83.1055C501.133 86.5977 501.578 89.375 502.469 91.4375V92H495.648ZM484.855 87.043C486.895 87.043 488.828 86.5156 490.656 85.4609C492.484 84.4062 493.809 83.0352 494.629 81.3477V73.543H489.531C481.562 73.543 477.578 75.875 477.578 80.5391C477.578 82.5781 478.258 84.1719 479.617 85.3203C480.977 86.4688 482.723 87.043 484.855 87.043ZM534.812 88.2383C532.281 91.2148 528.566 92.7031 523.668 92.7031C519.613 92.7031 516.52 91.5312 514.387 89.1875C512.277 86.8203 511.211 83.3281 511.188 78.7109V53.9609H517.691V78.5352C517.691 84.3008 520.035 87.1836 524.723 87.1836C529.691 87.1836 532.996 85.332 534.637 81.6289V53.9609H541.141V92H534.953L534.812 88.2383ZM549.508 72.6641C549.508 66.7344 550.879 62.0234 553.621 58.5312C556.363 55.0156 559.996 53.2578 564.52 53.2578C569.16 53.2578 572.781 54.8984 575.383 58.1797L575.699 53.9609H581.641V91.0859C581.641 96.0078 580.176 99.8867 577.246 102.723C574.34 105.559 570.426 106.977 565.504 106.977C562.762 106.977 560.078 106.391 557.453 105.219C554.828 104.047 552.824 102.441 551.441 100.402L554.816 96.5C557.605 99.9453 561.016 101.668 565.047 101.668C568.211 101.668 570.672 100.777 572.43 98.9961C574.211 97.2148 575.102 94.707 575.102 91.4727V88.2031C572.5 91.2031 568.949 92.7031 564.449 92.7031C559.996 92.7031 556.387 90.9102 553.621 87.3242C550.879 83.7383 549.508 78.8516 549.508 72.6641ZM556.047 73.4023C556.047 77.6914 556.926 81.0664 558.684 83.5273C560.441 85.9648 562.902 87.1836 566.066 87.1836C570.168 87.1836 573.18 85.3203 575.102 81.5938V64.2266C573.109 60.5938 570.121 58.7773 566.137 58.7773C562.973 58.7773 560.5 60.0078 558.719 62.4688C556.938 64.9297 556.047 68.5742 556.047 73.4023ZM597.988 58.5664C600.871 55.0273 604.621 53.2578 609.238 53.2578C617.277 53.2578 621.332 57.793 621.402 66.8633V92H614.898V66.8281C614.875 64.0859 614.242 62.0586 613 60.7461C611.781 59.4336 609.871 58.7773 607.27 58.7773C605.16 58.7773 603.309 59.3398 601.715 60.4648C600.121 61.5898 598.879 63.0664 597.988 64.8945V92H591.484V38H597.988V58.5664ZM639.965 44.75V53.9609H647.066V58.9883H639.965V82.5781C639.965 84.1016 640.281 85.25 640.914 86.0234C641.547 86.7734 642.625 87.1484 644.148 87.1484C644.898 87.1484 645.93 87.0078 647.242 86.7266V92C645.531 92.4688 643.867 92.7031 642.25 92.7031C639.344 92.7031 637.152 91.8242 635.676 90.0664C634.199 88.3086 633.461 85.8125 633.461 82.5781V58.9883H626.535V53.9609H633.461V44.75H639.965ZM676.844 81.9102C676.844 80.1523 676.176 78.793 674.84 77.832C673.527 76.8477 671.219 76.0039 667.914 75.3008C664.633 74.5977 662.02 73.7539 660.074 72.7695C658.152 71.7852 656.723 70.6133 655.785 69.2539C654.871 67.8945 654.414 66.2773 654.414 64.4023C654.414 61.2852 655.727 58.6484 658.352 56.4922C661 54.3359 664.375 53.2578 668.477 53.2578C672.789 53.2578 676.281 54.3711 678.953 56.5977C681.648 58.8242 682.996 61.6719 682.996 65.1406H676.457C676.457 63.3594 675.695 61.8242 674.172 60.5352C672.672 59.2461 670.773 58.6016 668.477 58.6016C666.109 58.6016 664.258 59.1172 662.922 60.1484C661.586 61.1797 660.918 62.5273 660.918 64.1914C660.918 65.7617 661.539 66.9453 662.781 67.7422C664.023 68.5391 666.262 69.3008 669.496 70.0273C672.754 70.7539 675.391 71.6211 677.406 72.6289C679.422 73.6367 680.91 74.8555 681.871 76.2852C682.855 77.6914 683.348 79.4141 683.348 81.4531C683.348 84.8516 681.988 87.582 679.27 89.6445C676.551 91.6836 673.023 92.7031 668.688 92.7031C665.641 92.7031 662.945 92.1641 660.602 91.0859C658.258 90.0078 656.418 88.5078 655.082 86.5859C653.77 84.6406 653.113 82.543 653.113 80.293H659.617C659.734 82.4727 660.602 84.207 662.219 85.4961C663.859 86.7617 666.016 87.3945 668.688 87.3945C671.148 87.3945 673.117 86.9023 674.594 85.918C676.094 84.9102 676.844 83.5742 676.844 81.9102ZM733.164 92C732.789 91.25 732.484 89.9141 732.25 87.9922C729.227 91.1328 725.617 92.7031 721.422 92.7031C717.672 92.7031 714.59 91.6484 712.176 89.5391C709.785 87.4062 708.59 84.7109 708.59 81.4531C708.59 77.4922 710.09 74.4219 713.09 72.2422C716.113 70.0391 720.355 68.9375 725.816 68.9375H732.145V65.9492C732.145 63.6758 731.465 61.8711 730.105 60.5352C728.746 59.1758 726.742 58.4961 724.094 58.4961C721.773 58.4961 719.828 59.082 718.258 60.2539C716.688 61.4258 715.902 62.8438 715.902 64.5078H709.363C709.363 62.6094 710.031 60.7812 711.367 59.0234C712.727 57.2422 714.555 55.8359 716.852 54.8047C719.172 53.7734 721.715 53.2578 724.48 53.2578C728.863 53.2578 732.297 54.3594 734.781 56.5625C737.266 58.7422 738.555 61.7539 738.648 65.5977V83.1055C738.648 86.5977 739.094 89.375 739.984 91.4375V92H733.164ZM722.371 87.043C724.41 87.043 726.344 86.5156 728.172 85.4609C730 84.4062 731.324 83.0352 732.145 81.3477V73.543H727.047C719.078 73.543 715.094 75.875 715.094 80.5391C715.094 82.5781 715.773 84.1719 717.133 85.3203C718.492 86.4688 720.238 87.043 722.371 87.043ZM754.996 53.9609L755.207 58.7422C758.113 55.0859 761.91 53.2578 766.598 53.2578C774.637 53.2578 778.691 57.793 778.762 66.8633V92H772.258V66.8281C772.234 64.0859 771.602 62.0586 770.359 60.7461C769.141 59.4336 767.23 58.7773 764.629 58.7773C762.52 58.7773 760.668 59.3398 759.074 60.4648C757.48 61.5898 756.238 63.0664 755.348 64.8945V92H748.844V53.9609H754.996ZM786.988 72.6641C786.988 66.8281 788.371 62.1406 791.137 58.6016C793.902 55.0391 797.523 53.2578 802 53.2578C806.453 53.2578 809.98 54.7812 812.582 57.8281V38H819.086V92H813.109L812.793 87.9219C810.191 91.1094 806.57 92.7031 801.93 92.7031C797.523 92.7031 793.926 90.8984 791.137 87.2891C788.371 83.6797 786.988 78.9688 786.988 73.1562V72.6641ZM793.492 73.4023C793.492 77.7148 794.383 81.0898 796.164 83.5273C797.945 85.9648 800.406 87.1836 803.547 87.1836C807.672 87.1836 810.684 85.332 812.582 81.6289V64.1562C810.637 60.5703 807.648 58.7773 803.617 58.7773C800.43 58.7773 797.945 60.0078 796.164 62.4688C794.383 64.9297 793.492 68.5742 793.492 73.4023ZM870.836 43.5195C867.93 43.0508 865.586 42.8164 863.805 42.8164C859.117 42.8164 856.773 45.2773 856.773 50.1992V53.9609H864.895V58.9883H856.773V92H850.27V58.9883H844.258V53.9609H850.27V49.8125C850.293 45.7578 851.43 42.6523 853.68 40.4961C855.93 38.3398 859.129 37.2617 863.277 37.2617C865.645 37.2617 870.332 37.9766 877.34 39.4062V92H870.836V43.5195ZM886.27 72.6289C886.27 68.9023 886.996 65.5508 888.449 62.5742C889.926 59.5977 891.965 57.3008 894.566 55.6836C897.191 54.0664 900.18 53.2578 903.531 53.2578C908.711 53.2578 912.895 55.0508 916.082 58.6367C919.293 62.2227 920.898 66.9922 920.898 72.9453V73.4023C920.898 77.1055 920.184 80.4336 918.754 83.3867C917.348 86.3164 915.32 88.6016 912.672 90.2422C910.047 91.8828 907.023 92.7031 903.602 92.7031C898.445 92.7031 894.262 90.9102 891.051 87.3242C887.863 83.7383 886.27 78.9922 886.27 73.0859V72.6289ZM892.809 73.4023C892.809 77.6211 893.781 81.0078 895.727 83.5625C897.695 86.1172 900.32 87.3945 903.602 87.3945C906.906 87.3945 909.531 86.1055 911.477 83.5273C913.422 80.9258 914.395 77.293 914.395 72.6289C914.395 68.457 913.398 65.082 911.406 62.5039C909.438 59.9023 906.812 58.6016 903.531 58.6016C900.32 58.6016 897.73 59.8789 895.762 62.4336C893.793 64.9883 892.809 68.6445 892.809 73.4023ZM927.332 72.6289C927.332 68.9023 928.059 65.5508 929.512 62.5742C930.988 59.5977 933.027 57.3008 935.629 55.6836C938.254 54.0664 941.242 53.2578 944.594 53.2578C949.773 53.2578 953.957 55.0508 957.145 58.6367C960.355 62.2227 961.961 66.9922 961.961 72.9453V73.4023C961.961 77.1055 961.246 80.4336 959.816 83.3867C958.41 86.3164 956.383 88.6016 953.734 90.2422C951.109 91.8828 948.086 92.7031 944.664 92.7031C939.508 92.7031 935.324 90.9102 932.113 87.3242C928.926 83.7383 927.332 78.9922 927.332 73.0859V72.6289ZM933.871 73.4023C933.871 77.6211 934.844 81.0078 936.789 83.5625C938.758 86.1172 941.383 87.3945 944.664 87.3945C947.969 87.3945 950.594 86.1055 952.539 83.5273C954.484 80.9258 955.457 77.293 955.457 72.6289C955.457 68.457 954.461 65.082 952.469 62.5039C950.5 59.9023 947.875 58.6016 944.594 58.6016C941.383 58.6016 938.793 59.8789 936.824 62.4336C934.855 64.9883 933.871 68.6445 933.871 73.4023ZM968.535 72.6641C968.535 66.8281 969.918 62.1406 972.684 58.6016C975.449 55.0391 979.07 53.2578 983.547 53.2578C988 53.2578 991.527 54.7812 994.129 57.8281V38H1000.63V92H994.656L994.34 87.9219C991.738 91.1094 988.117 92.7031 983.477 92.7031C979.07 92.7031 975.473 90.8984 972.684 87.2891C969.918 83.6797 968.535 78.9688 968.535 73.1562V72.6641ZM975.039 73.4023C975.039 77.7148 975.93 81.0898 977.711 83.5273C979.492 85.9648 981.953 87.1836 985.094 87.1836C989.219 87.1836 992.23 85.332 994.129 81.6289V64.1562C992.184 60.5703 989.195 58.7773 985.164 58.7773C981.977 58.7773 979.492 60.0078 977.711 62.4688C975.93 64.9297 975.039 68.5742 975.039 73.4023ZM1032.91 81.9102C1032.91 80.1523 1032.24 78.793 1030.9 77.832C1029.59 76.8477 1027.28 76.0039 1023.98 75.3008C1020.7 74.5977 1018.08 73.7539 1016.14 72.7695C1014.21 71.7852 1012.79 70.6133 1011.85 69.2539C1010.93 67.8945 1010.48 66.2773 1010.48 64.4023C1010.48 61.2852 1011.79 58.6484 1014.41 56.4922C1017.06 54.3359 1020.44 53.2578 1024.54 53.2578C1028.85 53.2578 1032.34 54.3711 1035.02 56.5977C1037.71 58.8242 1039.06 61.6719 1039.06 65.1406H1032.52C1032.52 63.3594 1031.76 61.8242 1030.23 60.5352C1028.73 59.2461 1026.84 58.6016 1024.54 58.6016C1022.17 58.6016 1020.32 59.1172 1018.98 60.1484C1017.65 61.1797 1016.98 62.5273 1016.98 64.1914C1016.98 65.7617 1017.6 66.9453 1018.84 67.7422C1020.09 68.5391 1022.32 69.3008 1025.56 70.0273C1028.82 70.7539 1031.45 71.6211 1033.47 72.6289C1035.48 73.6367 1036.97 74.8555 1037.93 76.2852C1038.92 77.6914 1039.41 79.4141 1039.41 81.4531C1039.41 84.8516 1038.05 87.582 1035.33 89.6445C1032.61 91.6836 1029.09 92.7031 1024.75 92.7031C1021.7 92.7031 1019.01 92.1641 1016.66 91.0859C1014.32 90.0078 1012.48 88.5078 1011.14 86.5859C1009.83 84.6406 1009.18 82.543 1009.18 80.293H1015.68C1015.8 82.4727 1016.66 84.207 1018.28 85.4961C1019.92 86.7617 1022.08 87.3945 1024.75 87.3945C1027.21 87.3945 1029.18 86.9023 1030.66 85.918C1032.16 84.9102 1032.91 83.5742 1032.91 81.9102Z" fill="#5D5FEF"/>
<path d="M382.887 245.035L397.512 202.812H404.895L385.91 254H379.934L360.984 202.812H368.332L382.887 245.035ZM432.914 243.91C432.914 242.152 432.246 240.793 430.91 239.832C429.598 238.848 427.289 238.004 423.984 237.301C420.703 236.598 418.09 235.754 416.145 234.77C414.223 233.785 412.793 232.613 411.855 231.254C410.941 229.895 410.484 228.277 410.484 226.402C410.484 223.285 411.797 220.648 414.422 218.492C417.07 216.336 420.445 215.258 424.547 215.258C428.859 215.258 432.352 216.371 435.023 218.598C437.719 220.824 439.066 223.672 439.066 227.141H432.527C432.527 225.359 431.766 223.824 430.242 222.535C428.742 221.246 426.844 220.602 424.547 220.602C422.18 220.602 420.328 221.117 418.992 222.148C417.656 223.18 416.988 224.527 416.988 226.191C416.988 227.762 417.609 228.945 418.852 229.742C420.094 230.539 422.332 231.301 425.566 232.027C428.824 232.754 431.461 233.621 433.477 234.629C435.492 235.637 436.98 236.855 437.941 238.285C438.926 239.691 439.418 241.414 439.418 243.453C439.418 246.852 438.059 249.582 435.34 251.645C432.621 253.684 429.094 254.703 424.758 254.703C421.711 254.703 419.016 254.164 416.672 253.086C414.328 252.008 412.488 250.508 411.152 248.586C409.84 246.641 409.184 244.543 409.184 242.293H415.688C415.805 244.473 416.672 246.207 418.289 247.496C419.93 248.762 422.086 249.395 424.758 249.395C427.219 249.395 429.188 248.902 430.664 247.918C432.164 246.91 432.914 245.574 432.914 243.91ZM448.031 250.59C448.031 249.465 448.359 248.527 449.016 247.777C449.695 247.027 450.703 246.652 452.039 246.652C453.375 246.652 454.383 247.027 455.062 247.777C455.766 248.527 456.117 249.465 456.117 250.59C456.117 251.668 455.766 252.57 455.062 253.297C454.383 254.023 453.375 254.387 452.039 254.387C450.703 254.387 449.695 254.023 449.016 253.297C448.359 252.57 448.031 251.668 448.031 250.59Z" fill="#5D5FEF"/>
</svg>
